<svg width="22" height="24" viewBox="0 0 22 24" fill="none" xmlns="http://www.w3.org/2000/svg">
  <path d="M11 24a3 3 0 003-3H8a3 3 0 003 3zm0-21.123l-1.195.241A6.003 6.003 0 005 9c0 .942-.201 3.296-.689 5.613-.24 1.15-.563 2.349-.994 3.387h15.366c-.43-1.038-.753-2.235-.994-3.387C17.2 12.296 17 9.942 17 9a6.003 6.003 0 00-4.805-5.88L11 2.875v.002zM20.33 18c.335.67.722 1.201 1.17 1.5H.5c.449-.299.835-.83 1.17-1.5 1.35-2.7 1.83-7.68 1.83-9 0-3.63 2.58-6.66 6.008-7.352a1.5 1.5 0 112.985 0A7.503 7.503 0 0118.5 9c0 1.32.48 6.3 1.83 9z" fill="white"/>
</svg>
