<svg width="24" height="16" viewBox="0 0 24 16" fill="none" xmlns="http://www.w3.org/2000/svg">
  <path d="M15.189 3.818a10.5 10.5 0 00-2.058-.548 7.503 7.503 0 00-2.262 0 8.304 8.304 0 00-3.086.994 8.935 8.935 0 00-2.434 1.989A8.6 8.6 0 003.77 8.995a10.176 10.176 0 00-.582 3.223v.515c0 .228-.08.411-.24.548a1.03 1.03 0 01-.583.24H.789a.686.686 0 01-.549-.24.995.995 0 01-.24-.548v-.48c0-1.509.263-2.96.789-4.355a12.419 12.419 0 012.16-3.703A12.275 12.275 0 016.24 1.487 10.98 10.98 0 0110.389.115a11.346 11.346 0 013.84.103 11.64 11.64 0 013.428 1.269.542.542 0 01.206.343c.023.137-.034.251-.172.343-.32.251-.697.537-1.131.857-.434.32-.766.571-.994.754-.137.091-.263.103-.377.034zm7.474 3.052a11.468 11.468 0 011.166 5.074v.789c0 .228-.08.411-.24.548a1.03 1.03 0 01-.583.24h-1.543a.794.794 0 01-.583-.24.755.755 0 01-.24-.548v-.789c0-.846-.126-1.703-.377-2.571-.046-.16-.023-.286.068-.378l1.68-2.194a.457.457 0 01.378-.171c.16 0 .251.08.274.24zM19.68 4.675c.183-.137.366-.194.549-.17a.91.91 0 01.48.205.697.697 0 01.24.48.799.799 0 01-.172.583l-6.96 9.188-.103.103-.103.137a2.4 2.4 0 01-1.714.686 2.285 2.285 0 01-1.68-.686 2.285 2.285 0 01-.686-1.68c0-.663.229-1.223.686-1.68a.54.54 0 01.137-.103.536.536 0 00.137-.102l9.189-6.96z" fill="white"/>
</svg>
