<svg width="25" height="25" viewBox="0 0 25 25" fill="none" xmlns="http://www.w3.org/2000/svg">
  <g clip-path="url(#wpf:faq__clip0)">
    <path d="M12.24.002c-1.57 0-2.77 1.2-2.77 2.77V8.31c0 1.57 1.2 2.77 2.77 2.77h5.538l3.692 3.692v-3.693c1.57 0 2.77-1.2 2.77-2.769V2.772c0-1.57-1.2-2.77-2.77-2.77h-9.23zm3.865 2.77h1.586L19.25 8.31h-1.384l-.376-1.384h-1.385L15.76 8.31h-1.212l1.558-5.538zm.75.923c-.093.369-.196.82-.29 1.096l-.258 1.211h1.096l-.26-1.212c-.184-.276-.288-.726-.288-1.095zM3.009 9.233c-1.57 0-2.77 1.2-2.77 2.77v5.538c0 1.57 1.2 2.77 2.77 2.77v3.691L6.7 20.31h5.538c1.57 0 2.77-1.2 2.77-2.77v-5.538h-2.77c-1.754 0-3.144-1.2-3.605-2.769H3.009zm4.24 2.683c1.57 0 2.308 1.292 2.308 2.769 0 1.292-.444 2.112-1.183 2.481.37.185.807.283 1.269.375l-.345.923c-.647-.185-1.317-.473-1.963-.75-.092-.093-.254-.086-.346-.086-1.108-.093-2.134-1.01-2.134-2.856 0-1.57.917-2.856 2.394-2.856zm0 1.01c-.738 0-1.096.83-1.096 1.846 0 1.107.358 1.846 1.096 1.846.739 0 1.125-.831 1.125-1.846 0-1.016-.386-1.847-1.125-1.847z" fill="white" fill-opacity=".8"/>
  </g>
  <defs>
    <clipPath id="wpf:faq__clip0">
      <path fill="white" transform="translate(.24 .002)" d="M0 0h24v24H0z"/>
    </clipPath>
  </defs>
</svg>
