<svg width="25" height="24" viewBox="0 0 25 24" fill="none" xmlns="http://www.w3.org/2000/svg">
  <path d="M5.24 16a1 1 0 011-1h8a1 1 0 010 2h-8a1 1 0 01-1-1zm13-5a1 1 0 010 2h-8a1 1 0 010-2h8zm-2 5a1 1 0 011-1h1a1 1 0 010 2h-1a1 1 0 01-1-1zm-9-5a1 1 0 010 2h-1a1 1 0 010-2h1z" fill="white" fill-opacity=".8"/>
  <path fill-rule="evenodd" clip-rule="evenodd" d="M4.24 3a3 3 0 00-3 3v12a3 3 0 003 3h16a3 3 0 003-3V6a3 3 0 00-3-3h-16zm16 2h-16a1 1 0 00-1 1v12a1 1 0 001 1h16a1 1 0 001-1V6a1 1 0 00-1-1z" fill="white" fill-opacity=".8"/>
</svg>
