<svg width="25" height="24" viewBox="0 0 25 24" fill="none" xmlns="http://www.w3.org/2000/svg">
  <path d="M21.052 18.563H4.927V3.938a.188.188 0 00-.188-.188H3.427a.188.188 0 00-.188.188v16.125c0 .103.085.187.188.187h17.625a.188.188 0 00.187-.188V18.75a.188.188 0 00-.187-.188zM7.407 14.945c.072.073.19.073.264 0l3.242-3.225 2.99 3.01a.188.188 0 00.265 0l6.455-6.453a.188.188 0 000-.265l-.928-.928a.188.188 0 00-.265 0l-5.39 5.388-2.987-3.004a.188.188 0 00-.264 0L6.48 13.75a.188.188 0 000 .265l.926.93z" fill="white" fill-opacity=".8"/>
</svg>
